<svg width="264" height="264" viewBox="0 0 264 264" fill="none" xmlns="http://www.w3.org/2000/svg">
<path d="M146.47 71.4163L87.4403 171.829L205.064 171.829L146.47 71.4163Z" fill="#49BCBF"/>
<path d="M146.47 71.4163L205.064 171.829L231.584 87.007L146.47 71.4163Z" fill="#FFA62B"/>
<path d="M146.47 38V71.4163L231.584 87.007L146.47 38Z" fill="#49BCBF"/>
<path d="M231.584 185.621L231.584 87.007L205.064 171.829L231.584 185.621Z" fill="#49BCBF"/>
<path d="M146.47 71.4163V38L61.5194 87.007L146.47 71.4163Z" fill="#2E7273"/>
<path d="M146.47 71.4163L61.5194 87.007L87.4403 171.829L146.47 71.4163Z" fill="#2E7273"/>
<path d="M205.064 171.829L87.4403 171.829L146.692 234.685L205.064 171.829Z" fill="#264E51"/>
<path d="M146.692 234.685L231.584 185.621L205.064 171.829L146.692 234.685Z" fill="#2E7273"/>
<path d="M61.5194 87.007L61.4727 185.375L87.4403 171.829L61.5194 87.007Z" fill="#254D4F"/>
<path d="M61.4727 185.375L146.692 234.685L87.4403 171.829L61.4727 185.375Z" fill="#2E7273"/>
<path d="M146.47 71.4163V38M146.47 71.4163L61.5194 87.007M146.47 71.4163L87.4403 171.829M146.47 71.4163L205.064 171.829M146.47 71.4163L231.584 87.007M146.47 38L231.584 87.007M146.47 38L61.5194 87.007M231.584 87.007L231.584 185.621M231.584 87.007L205.064 171.829M231.584 185.621L146.692 234.685M231.584 185.621L205.064 171.829M146.692 234.685L61.4727 185.375M146.692 234.685L205.064 171.829M146.692 234.685L87.4403 171.829M61.4727 185.375L61.5194 87.007M61.4727 185.375L87.4403 171.829M61.5194 87.007L87.4403 171.829M87.4403 171.829L205.064 171.829" stroke="black" stroke-width="5.44532" stroke-linejoin="round"/>
<path d="M123.413 148.806L123.414 148.808C124.04 149.526 125.018 149.792 126.135 149.792C126.472 149.792 126.82 149.741 127.175 149.646C127.509 149.562 127.94 149.425 128.46 149.241C129.408 149.28 130.384 149.309 131.387 149.329L131.387 149.329C132.459 149.349 133.501 149.36 134.512 149.36C136.232 149.36 137.652 149.267 138.755 149.072C139.83 148.902 140.716 148.661 141.368 148.322L141.377 148.317L141.386 148.312C141.997 147.971 142.5 147.547 142.776 147.004C143.03 146.54 143.165 146.047 143.165 145.53C143.165 144.797 142.885 144.162 142.293 143.725C141.738 143.314 141.026 143.153 140.24 143.153C139.698 143.153 139.14 143.21 138.566 143.32L138.566 143.32L138.561 143.322C138.06 143.422 137.383 143.544 136.528 143.687C136.19 143.735 135.794 143.779 135.34 143.818C136.362 142.998 137.331 142.128 138.247 141.208C139.726 139.724 140.919 138.145 141.817 136.472C142.75 134.772 143.227 133.018 143.227 131.22C143.227 128.578 142.564 126.476 141.105 125.058C139.701 123.673 137.881 123.001 135.713 123.001C134.396 123.001 133.188 123.185 132.096 123.565C131.057 123.913 130.14 124.364 129.356 124.927C128.602 125.468 127.984 126.026 127.521 126.606C127.086 127.152 126.761 127.696 126.645 128.223C126.485 128.945 126.591 129.646 127.081 130.204L127.088 130.212L127.096 130.219C127.515 130.668 128.043 130.939 128.66 130.939C129.054 130.939 129.472 130.786 129.871 130.585L129.877 130.582L129.884 130.579C130.264 130.378 130.728 130.145 131.278 129.879C131.783 129.635 132.374 129.423 133.056 129.247L133.065 129.245L133.075 129.242C133.721 129.057 134.445 128.961 135.251 128.961C136.152 128.961 136.747 129.173 137.131 129.502L137.131 129.502L137.141 129.51C137.514 129.817 137.746 130.293 137.746 131.065C137.746 131.807 137.552 132.633 137.132 133.553L137.132 133.553L137.13 133.559C136.725 134.467 136.151 135.408 135.399 136.381L135.398 136.383C134.662 137.341 133.813 138.284 132.851 139.209L132.851 139.209L132.845 139.214C131.904 140.139 130.913 140.982 129.874 141.745L129.874 141.745L129.868 141.749C128.904 142.47 127.953 143.08 127.017 143.58C126.03 143.556 125.18 143.663 124.522 143.956C123.868 144.248 123.339 144.669 123.019 145.252L123.019 145.252L123.013 145.263C122.753 145.759 122.624 146.294 122.624 146.859C122.624 147.579 122.916 148.233 123.413 148.806ZM154.963 147.868L154.963 147.868L154.971 147.873C156.25 148.616 157.635 148.989 159.115 148.989C160.639 148.989 162.084 148.594 163.439 147.814C164.807 147.038 165.998 145.948 167.014 144.56C168.054 143.168 168.857 141.528 169.431 139.651C170.03 137.761 170.325 135.69 170.325 133.445C170.325 131.544 169.97 129.837 169.237 128.344C168.509 126.84 167.494 125.646 166.187 124.787C164.87 123.921 163.356 123.496 161.671 123.496C160.571 123.496 159.495 123.71 158.449 124.135C157.416 124.554 156.478 125.118 155.64 125.827L155.64 125.827L155.633 125.833C154.82 126.538 154.153 127.328 153.639 128.203L153.639 128.203L153.636 128.208C153.13 129.085 152.864 129.999 152.864 130.942C152.864 131.23 152.893 131.509 152.957 131.774C152.401 132.719 151.904 133.781 151.462 134.956C150.959 136.275 150.708 137.658 150.708 139.101C150.708 141.201 151.081 143.012 151.868 144.501C152.639 145.96 153.668 147.093 154.963 147.868ZM159.22 131.404L159.22 131.404L159.229 131.394C159.45 131.127 159.637 130.871 159.784 130.625C159.989 130.282 160.069 129.89 160.069 129.489C160.069 129.482 160.069 129.475 160.069 129.468C160.271 129.382 160.487 129.308 160.719 129.245L160.729 129.242L160.739 129.239C161.136 129.117 161.579 129.053 162.072 129.053C162.564 129.053 162.974 129.218 163.337 129.566C163.729 129.944 164.056 130.475 164.295 131.196C164.534 131.916 164.659 132.736 164.659 133.661C164.659 134.978 164.483 136.218 164.135 137.384L164.134 137.384L164.131 137.394C163.799 138.571 163.344 139.608 162.77 140.511C162.196 141.393 161.55 142.073 160.836 142.569L160.836 142.569L160.829 142.574C160.152 143.057 159.482 143.277 158.807 143.277C158.019 143.277 157.491 142.988 157.12 142.422C156.71 141.797 156.466 140.869 156.466 139.565C156.466 138.839 156.551 138.067 156.726 137.246C156.925 136.391 157.172 135.567 157.468 134.775C157.768 133.974 158.073 133.283 158.383 132.699C158.723 132.078 159.002 131.656 159.22 131.404Z" fill="#FFA62B" stroke="black" stroke-width="1.41578"/>
<path d="M183.935 104.682C183.812 104.468 183.731 104.255 183.692 104.042C183.648 103.85 183.675 103.65 183.773 103.442C183.388 102.977 183.024 102.508 182.684 102.034C182.343 101.56 182.045 101.103 181.791 100.663C181.574 100.286 181.497 99.9357 181.562 99.613C181.615 99.2976 181.805 99.0455 182.132 98.8567C182.32 98.7478 182.596 98.7313 182.958 98.8071C183.321 98.883 183.776 99.1484 184.323 99.6034C184.884 100.051 185.546 100.792 186.311 101.826C186.953 101.573 187.727 101.302 188.633 101.013C189.553 100.718 190.544 100.43 191.607 100.152C192.683 99.8661 193.771 99.6316 194.873 99.4484C194.114 99.2663 193.416 99.0154 192.778 98.6959C192.148 98.3889 191.611 98.0536 191.166 97.6899C190.729 97.3389 190.416 96.9998 190.227 96.6729C190.075 96.4088 189.992 96.1633 189.978 95.9364C189.972 95.7221 190.088 95.546 190.327 95.4081C190.629 95.2338 190.989 95.2187 191.407 95.3627C191.838 95.4995 192.278 95.665 192.725 95.8594C193.413 96.1499 194.197 96.4346 195.079 96.7134C195.969 97.0048 196.87 97.2305 197.784 97.3903C198.705 97.5627 199.545 97.6229 200.303 97.5709C200.647 97.5568 200.941 97.5879 201.187 97.6642C201.445 97.7333 201.679 97.9502 201.889 98.3149C202.1 98.6796 202.089 99.038 201.856 99.3903C201.636 99.7353 201.306 100.035 200.866 100.289C200.69 100.391 200.296 100.551 199.685 100.77C199.086 100.981 198.34 101.228 197.446 101.509C196.564 101.783 195.591 102.086 194.524 102.416C193.47 102.74 192.387 103.072 191.276 103.412C190.164 103.752 189.091 104.086 188.057 104.415C188.309 104.822 188.562 105.246 188.816 105.686C189.121 106.215 189.342 106.699 189.479 107.14C189.616 107.58 189.54 107.884 189.251 108.051C188.949 108.225 188.647 108.224 188.343 108.047C188.06 107.876 187.756 107.64 187.432 107.341C187.136 107.059 186.807 106.737 186.447 106.375C186.075 106.02 185.7 105.633 185.324 105.213C184.962 105.254 184.667 105.223 184.44 105.12C184.212 105.016 184.044 104.87 183.935 104.682Z" fill="black"/>
<path d="M192.899 120.25C192.645 119.81 192.611 119.403 192.796 119.027C192.977 118.671 193.299 118.359 193.765 118.091C194.268 117.8 194.736 117.58 195.169 117.431C195.61 117.294 196.064 117.165 196.532 117.046C196.126 116.459 195.716 115.866 195.303 115.266C194.902 114.659 194.508 114.048 194.119 113.434C193.813 113.309 193.536 113.15 193.291 112.957C193.045 112.763 192.828 112.503 192.639 112.176C192.363 111.698 192.246 111.263 192.287 110.87C192.329 110.477 192.569 110.154 193.01 109.9C193.513 109.609 193.971 109.546 194.384 109.71C194.817 109.879 195.222 110.174 195.598 110.593C196.728 110.779 197.891 111.022 199.087 111.321C200.282 111.62 201.468 111.916 202.643 112.21C203.819 112.504 204.938 112.729 206.002 112.887C207.085 113.049 208.066 113.078 208.944 112.974C209.383 112.921 209.748 112.987 210.039 113.171C210.35 113.361 210.596 113.613 210.777 113.927C211.032 114.367 211.032 114.761 210.78 115.108C210.535 115.467 210.173 115.785 209.695 116.061C209.582 116.126 209.268 116.249 208.751 116.43C208.248 116.603 207.591 116.815 206.779 117.066C205.988 117.321 205.1 117.599 204.117 117.899C203.153 118.204 202.153 118.521 201.119 118.85C201.686 119.629 202.169 120.306 202.568 120.88C202.98 121.447 203.233 121.813 203.327 121.976C203.537 122.341 203.67 122.658 203.726 122.928C203.781 123.198 203.658 123.42 203.356 123.594C203.079 123.754 202.745 123.712 202.353 123.469C201.981 123.231 201.609 122.951 201.239 122.629C200.868 122.306 200.45 121.902 199.985 121.416C199.52 120.93 199.013 120.342 198.464 119.653C197.876 119.825 197.313 119.982 196.775 120.125C196.237 120.268 195.634 120.457 194.965 120.692C194.512 120.837 194.109 120.893 193.755 120.863C193.41 120.844 193.124 120.64 192.899 120.25ZM203.685 114.929C202.574 114.748 201.45 114.542 200.31 114.312C199.191 114.086 198.155 113.846 197.203 113.591C197.534 114.02 197.863 114.458 198.189 114.907C198.523 115.369 198.856 115.83 199.19 116.292L203.685 114.929Z" fill="black"/>
<path d="M150.297 182.301C151.415 182.301 152.301 182.446 152.955 182.736C153.608 183.012 154.08 183.404 154.37 183.913C154.646 184.421 154.784 185.009 154.784 185.677C154.784 186.214 154.581 186.788 154.174 187.398C153.753 188.022 153.187 188.675 152.475 189.358C151.764 190.055 150.972 190.766 150.101 191.492C151.161 191.914 151.887 192.342 152.279 192.778C152.657 193.228 152.846 193.743 152.846 194.324C152.846 194.687 152.664 195.123 152.301 195.631C151.924 196.154 151.437 196.684 150.842 197.221C150.232 197.773 149.586 198.281 148.903 198.746C148.206 199.225 147.531 199.61 146.878 199.9C146.21 200.205 145.643 200.357 145.179 200.357C144.699 200.357 144.3 200.249 143.981 200.031C143.661 199.827 143.501 199.493 143.501 199.029C143.501 198.84 143.552 198.622 143.654 198.375C143.756 198.128 143.944 197.918 144.22 197.744C144.482 197.569 144.881 197.482 145.418 197.482C145.578 197.482 145.759 197.504 145.963 197.548C146.587 197.228 147.183 196.88 147.749 196.502C148.315 196.125 148.802 195.733 149.208 195.326C149.615 194.919 149.891 194.52 150.036 194.128C149.716 193.997 149.382 193.867 149.034 193.736C148.671 193.605 148.286 193.475 147.88 193.344C147.589 193.576 147.299 193.809 147.008 194.041C146.703 194.288 146.406 194.535 146.115 194.781C144.983 195.725 143.944 196.56 143.001 197.286C142.042 198.012 141.229 198.586 140.561 199.007C139.879 199.428 139.392 199.639 139.102 199.639C138.855 199.639 138.652 199.544 138.492 199.355C138.332 199.167 138.252 198.949 138.252 198.702C138.252 198.513 138.339 198.295 138.514 198.049C138.673 197.802 138.978 197.461 139.428 197.025C139.879 196.604 140.525 196.045 141.367 195.348C142.195 194.665 143.269 193.787 144.591 192.712C144.75 192.582 144.917 192.451 145.092 192.32C144.148 191.885 143.422 191.376 142.913 190.795C142.405 190.229 142.151 189.503 142.151 188.617C142.151 187.528 142.463 186.497 143.088 185.524C143.698 184.566 144.605 183.789 145.81 183.194C147.016 182.598 148.511 182.301 150.297 182.301ZM147.27 190.599C148.068 189.975 148.809 189.387 149.491 188.835C150.159 188.283 150.697 187.775 151.103 187.31C151.51 186.86 151.713 186.475 151.713 186.156C151.713 185.749 151.553 185.437 151.234 185.219C150.914 185.016 150.377 184.915 149.622 184.915C149.099 184.915 148.569 185.016 148.032 185.219C147.495 185.423 147.008 185.706 146.573 186.069C146.122 186.432 145.759 186.839 145.484 187.289C145.208 187.753 145.07 188.247 145.07 188.77C145.07 189.205 145.28 189.568 145.701 189.859C146.108 190.149 146.631 190.396 147.27 190.599Z" fill="black"/>
<path d="M98.6427 117.31C98.2797 117.939 97.871 118.298 97.4168 118.388C96.9823 118.473 96.6079 118.424 96.2935 118.243C96.0169 118.083 95.7954 117.871 95.629 117.608C95.4574 117.324 95.3941 116.969 95.4393 116.542C95.4844 116.116 95.701 115.595 96.0892 114.981C96.1253 114.163 96.0895 113.296 95.9819 112.379C95.8816 111.449 95.7128 110.522 95.4756 109.597C95.2456 108.659 94.9632 107.783 94.6282 106.969C94.2879 106.136 93.8984 105.416 93.4599 104.811C93.016 104.186 92.5299 103.721 92.0018 103.416C91.4359 103.089 90.9067 103.018 90.4141 103.203C89.9289 103.376 89.5084 103.77 89.1526 104.387C88.8477 104.915 88.631 105.435 88.5026 105.948C88.3617 106.453 88.275 106.923 88.2424 107.357C88.2099 107.791 88.1875 108.164 88.1753 108.475C88.1578 108.767 88.1091 108.982 88.0292 109.12C87.8913 109.359 87.6673 109.515 87.3571 109.587C87.0345 109.653 86.7251 109.549 86.4292 109.278C86.2318 109.097 86.0486 108.79 85.8794 108.357C85.7102 107.924 85.5955 107.397 85.5352 106.775C85.475 106.153 85.5185 105.483 85.6658 104.763C85.8078 104.023 86.1002 103.27 86.5431 102.503C87.2546 101.27 88.2091 100.488 89.4065 100.157C90.6111 99.8129 91.9869 100.087 93.5336 100.98C94.5523 101.568 95.3959 102.416 96.0646 103.523C96.7405 104.618 97.2645 105.859 97.6366 107.248C98.0086 108.636 98.258 110.063 98.3848 111.528C98.8916 110.563 99.2597 109.794 99.4892 109.223C99.7061 108.644 99.8739 108.179 99.9925 107.828C100.118 107.465 100.269 107.132 100.443 106.831C100.69 106.403 100.97 106.121 101.284 105.983C101.598 105.846 101.919 105.872 102.245 106.06C102.484 106.198 102.681 106.396 102.835 106.652C102.996 106.896 103.072 107.242 103.065 107.691C103.045 108.132 102.9 108.702 102.63 109.401C102.373 110.108 101.943 110.983 101.341 112.027C100.985 112.643 100.612 113.275 100.222 113.921C99.8392 114.555 99.461 115.167 99.0873 115.756C99.0098 116.181 98.9381 116.508 98.8722 116.739C98.8136 116.956 98.7371 117.147 98.6427 117.31Z" fill="black"/>
<path d="M12.8029 110.096L8 113.808C8 113.808 24.3555 137.629 52.7544 163.35C77.9187 186.141 112.539 210.424 153.616 220.946C153.994 221.03 154.365 221.124 154.726 221.227C165.208 224.214 168.638 235.037 169.553 241.975C216.927 243.286 238.758 233.242 243.779 219.704C247.796 208.875 195.969 201.509 169.553 199.18C160.194 211.365 141.695 206.268 137.621 204.913C137.582 204.901 137.544 204.888 137.507 204.875C136.646 204.584 136.54 204.497 137.46 204.857C137.476 204.863 137.491 204.869 137.507 204.875C137.543 204.887 137.581 204.9 137.621 204.913C141.833 206.203 155.372 197.593 161.693 193.067C160.383 192.848 155.1 192.805 144.446 194.377C131.129 196.342 106.023 192.848 106.46 189.573C106.809 186.953 122.615 187.899 130.474 188.7C122.091 186.604 114.756 179.529 112.136 176.254C101.657 179.573 91.4688 178.219 87.6847 177.127C107.115 179.966 108.425 176.036 109.516 175.162C109.516 175.162 88.849 172.033 78.7338 169.704C99.168 173.896 102.385 163.736 101.438 158.132C100.565 162.062 84.8466 165.774 80.6986 162.498C76.3526 159.067 73.175 158.253 71.4012 158.14C71.1603 158.141 70.912 158.139 70.6562 158.132C70.8677 158.121 71.1163 158.122 71.4012 158.14C76.9183 158.099 78.5944 155.752 78.7338 154.533C78.5883 155.15 76.8563 156.014 71.0928 154.533C65.3293 153.051 62.433 154.713 61.7053 155.73C61.356 151.887 66.6538 148.015 69.3463 146.559C62.1856 146.21 59.6677 148.306 59.3038 149.398C58.94 143.503 58.0813 133.24 58.4306 139.354C58.7799 145.468 56.0291 152.021 54.5009 154.533C37.8002 138.793 23.8875 122.916 12.8029 110.096Z" fill="#FCBB7B"/>
<path d="M158.418 238.7C150.559 230.316 151.942 223.371 153.616 220.946C112.539 210.424 77.9187 186.141 52.7544 163.35C51.6628 166.996 51.0079 175.992 57.1207 182.804C63.2335 189.617 64.3251 194.377 64.1068 195.905C64.8728 193.738 62.286 188.698 61.2687 183.896C60.5464 180.487 59.0855 178.219 59.3038 174.071C59.8278 182.28 68.8369 197.579 73.276 204.202C68.9097 195.119 71.1656 187.899 72.8393 185.424C69.1014 196.81 83.2422 210.22 91.3833 215.966C85.8914 211.676 83.1451 197.477 82.4451 190.665C97.1159 225.75 139.207 237.307 158.418 238.7Z" fill="#FCBB7B"/>
<path d="M233.737 219.704C156.637 233.156 96.6778 194.282 54.5009 154.533M227.187 223.198C201.453 228.292 177.138 226.817 154.726 221.227M54.5009 154.533C37.8002 138.793 23.8875 122.916 12.8029 110.096L8 113.808C8 113.808 24.3555 137.629 52.7544 163.35M54.5009 154.533C56.0291 152.021 58.7799 145.468 58.4306 139.354C58.0813 133.24 58.94 143.503 59.3038 149.398C59.6677 148.306 62.1856 146.21 69.3463 146.559C66.6538 148.015 61.356 151.887 61.7053 155.73C62.433 154.713 65.3293 153.051 71.0928 154.533C76.8563 156.014 78.5883 155.15 78.7338 154.533C78.5944 155.752 76.9183 158.099 71.4012 158.14M153.616 220.946C151.942 223.371 150.559 230.316 158.418 238.7C139.207 237.307 97.1159 225.75 82.4451 190.665C83.1451 197.477 85.8914 211.676 91.3833 215.966M153.616 220.946C112.539 210.424 77.9187 186.141 52.7544 163.35M153.616 220.946C153.994 221.03 154.365 221.124 154.726 221.227M153.616 220.946C153.985 221.041 154.356 221.135 154.726 221.227M52.7544 163.35C51.6628 166.996 51.0079 175.992 57.1207 182.804C63.2335 189.617 64.3251 194.377 64.1068 195.905C64.8728 193.738 62.286 188.698 61.2687 183.896C60.5464 180.487 59.0855 178.219 59.3038 174.071C59.8278 182.28 68.8369 197.579 73.276 204.202C68.9097 195.119 71.1656 187.899 72.8393 185.424C69.1014 196.81 83.2422 210.22 91.3833 215.966M154.726 221.227C165.208 224.214 168.638 235.037 169.553 241.975C216.927 243.286 238.758 233.242 243.779 219.704C247.796 208.875 195.969 201.509 169.553 199.18C160.194 211.365 141.695 206.268 137.621 204.913M137.621 204.913C137.582 204.901 137.544 204.888 137.507 204.875M137.621 204.913C137.581 204.9 137.543 204.887 137.507 204.875M137.621 204.913C141.833 206.203 155.372 197.593 161.693 193.067C160.383 192.848 155.1 192.805 144.446 194.377C131.129 196.342 106.023 192.848 106.46 189.573C106.809 186.953 122.615 187.899 130.474 188.7C122.091 186.604 114.756 179.529 112.136 176.254C101.657 179.573 91.4688 178.219 87.6847 177.127C107.115 179.966 108.425 176.036 109.516 175.162C109.516 175.162 88.849 172.033 78.7338 169.704C99.168 173.896 102.385 163.736 101.438 158.132C100.565 162.062 84.8466 165.774 80.6986 162.498C76.3526 159.067 73.175 158.253 71.4012 158.14M137.507 204.875C136.646 204.584 136.54 204.497 137.46 204.857C137.476 204.863 137.491 204.869 137.507 204.875ZM71.4012 158.14C71.1603 158.141 70.912 158.139 70.6562 158.132C70.8677 158.121 71.1163 158.122 71.4012 158.14ZM91.3833 215.966C91.6107 216.126 91.8334 216.281 92.051 216.429C91.8241 216.291 91.6015 216.136 91.3833 215.966Z" stroke="#100703" stroke-width="2.17813" stroke-linecap="round" stroke-linejoin="round"/>
</svg>
